<?xml version="1.0" standalone="no"?>
<!DOCTYPE svg PUBLIC "-//W3C//DTD SVG 1.1//EN" "http://www.w3.org/Graphics/SVG/1.1/DTD/svg11.dtd">
<!--Generator: Xara Designer (www.xara.com), SVG filter version: 6.3.0.23-->
<svg fill="none" fill-rule="evenodd" stroke="black" stroke-width="0.501" stroke-linejoin="bevel" stroke-miterlimit="10" font-family="Times New Roman" font-size="16" style="font-variant-ligatures:none" xmlns:xlink="http://www.w3.org/1999/xlink" xmlns="http://www.w3.org/2000/svg" version="1.1" overflow="visible" width="128.392pt" height="31.698pt" viewBox="277.765 -370.342 128.392 31.698">
 <defs>
	</defs>
 <g id="Layer 1" transform="scale(1 -1)">
  <g id="Group" stroke-linecap="round">
   <g id="Group_1" fill-rule="nonzero" stroke-linejoin="round" stroke="none" stroke-width="0.631">
    <g id="Group_2">
     <path d="M 309.23,346.435 C 308.174,346.887 307.373,347.519 306.826,348.333 C 306.28,349.147 306.006,350.08 306.006,351.131 L 307.522,351.131 C 307.522,349.866 307.995,348.867 308.94,348.136 C 309.885,347.404 311.143,347.039 312.712,347.039 C 314.109,347.039 315.231,347.347 316.078,347.963 C 316.924,348.579 317.348,349.397 317.348,350.417 C 317.348,351.411 316.998,352.198 316.3,352.777 C 315.601,353.356 314.323,353.907 312.466,354.429 C 310.608,354.951 309.253,355.52 308.398,356.136 C 307.182,357.008 306.573,358.15 306.573,359.563 C 306.573,360.936 307.138,362.051 308.268,362.91 C 309.398,363.769 310.843,364.199 312.601,364.199 C 313.793,364.199 314.859,363.969 315.8,363.508 C 316.741,363.048 317.471,362.407 317.989,361.585 C 318.506,360.763 318.765,359.847 318.765,358.836 L 317.236,358.836 C 317.236,360.061 316.817,361.045 315.979,361.789 C 315.141,362.532 314.015,362.904 312.601,362.904 C 311.229,362.904 310.136,362.598 309.322,361.986 C 308.509,361.374 308.102,360.574 308.102,359.588 C 308.102,358.676 308.467,357.932 309.199,357.357 C 309.93,356.781 311.102,356.274 312.712,355.834 C 314.323,355.395 315.544,354.939 316.373,354.466 C 317.204,353.993 317.828,353.429 318.247,352.771 C 318.666,352.114 318.876,351.337 318.876,350.441 C 318.876,349.028 318.311,347.893 317.181,347.039 C 316.051,346.184 314.561,345.757 312.712,345.757 C 311.447,345.757 310.286,345.983 309.23,346.435 Z" fill="#666666" marker-start="none" marker-end="none"/>
     <path d="M 321.971,346.003 L 321.971,359.342 L 323.45,359.342 L 323.45,346.003 L 321.971,346.003 Z M 321.983,362.497 C 321.803,362.686 321.712,362.921 321.712,363.2 C 321.712,363.48 321.803,363.715 321.983,363.909 C 322.164,364.102 322.411,364.199 322.723,364.199 C 323.035,364.199 323.284,364.102 323.469,363.909 C 323.654,363.715 323.746,363.48 323.746,363.2 C 323.746,362.921 323.654,362.686 323.469,362.497 C 323.284,362.308 323.035,362.214 322.723,362.214 C 322.411,362.214 322.164,362.308 321.983,362.497 Z" fill="#999999" marker-start="none" marker-end="none"/>
     <path d="M 331.007,346.003 L 326.002,359.342 L 327.518,359.342 L 331.611,348.037 L 335.666,359.342 L 337.183,359.342 L 332.203,346.003 L 331.007,346.003 Z" fill="#999999" marker-start="none" marker-end="none"/>
     <path d="M 339.915,346.829 C 339.122,347.544 338.725,348.448 338.725,349.541 C 338.725,350.84 339.266,351.867 340.346,352.623 C 341.427,353.379 342.933,353.757 344.864,353.757 L 347.539,353.757 L 347.539,355.274 C 347.539,356.227 347.246,356.977 346.658,357.523 C 346.07,358.07 345.214,358.343 344.088,358.343 C 343.06,358.343 342.21,358.08 341.536,357.554 C 340.862,357.028 340.525,356.395 340.525,355.656 L 339.046,355.668 C 339.046,356.728 339.539,357.646 340.525,358.423 C 341.511,359.2 342.723,359.588 344.162,359.588 C 345.649,359.588 346.822,359.216 347.681,358.473 C 348.54,357.729 348.981,356.691 349.006,355.36 L 349.006,349.048 C 349.006,347.758 349.142,346.792 349.413,346.151 L 349.413,346.003 L 347.835,346.003 C 347.687,346.422 347.593,347.043 347.552,347.865 C 347.034,347.191 346.374,346.671 345.573,346.305 C 344.772,345.939 343.923,345.757 343.027,345.757 C 341.745,345.757 340.708,346.114 339.915,346.829 Z M 345.844,347.779 C 346.621,348.255 347.186,348.892 347.539,349.689 L 347.539,352.623 L 344.901,352.623 C 343.43,352.607 342.28,352.337 341.449,351.816 C 340.619,351.294 340.204,350.577 340.204,349.664 C 340.204,348.916 340.482,348.296 341.036,347.803 C 341.591,347.31 342.312,347.064 343.2,347.063 C 344.186,347.064 345.067,347.302 345.844,347.779 Z" fill="#999999" marker-start="none" marker-end="none"/>
     <path d="M 351.385,346.003 L 358.178,363.952 L 359.62,363.952 L 366.412,346.003 L 364.834,346.003 L 362.973,351.033 L 354.824,351.033 L 352.975,346.003 L 351.385,346.003 Z M 362.492,352.327 L 358.893,362.103 L 355.293,352.327 L 362.492,352.327 Z" fill="#666666" marker-start="none" marker-end="none"/>
     <path d="M 368.693,340.875 L 368.693,359.342 L 370.062,359.342 L 370.136,357.455 C 371.097,358.877 372.49,359.588 374.314,359.588 C 375.909,359.588 377.16,358.984 378.068,357.776 C 378.976,356.568 379.43,354.891 379.43,352.746 L 379.43,352.537 C 379.43,350.458 378.97,348.808 378.05,347.587 C 377.129,346.367 375.896,345.757 374.351,345.757 C 372.527,345.757 371.13,346.398 370.16,347.68 L 370.16,340.875 L 368.693,340.875 Z M 376.909,348.487 C 377.604,349.477 377.951,350.914 377.951,352.796 C 377.951,354.497 377.602,355.841 376.903,356.827 C 376.205,357.813 375.231,358.306 373.981,358.306 C 373.078,358.306 372.301,358.088 371.652,357.653 C 371.002,357.217 370.505,356.584 370.16,355.754 L 370.16,349.356 C 370.514,348.592 371.019,348.008 371.676,347.606 C 372.334,347.203 373.11,347.002 374.006,347.002 C 375.247,347.002 376.215,347.497 376.909,348.487 Z" fill="#999999" marker-start="none" marker-end="none"/>
     <path d="M 382.685,340.875 L 382.685,359.342 L 384.054,359.342 L 384.128,357.455 C 385.089,358.877 386.482,359.588 388.306,359.588 C 389.901,359.588 391.152,358.984 392.06,357.776 C 392.968,356.568 393.422,354.891 393.422,352.746 L 393.422,352.537 C 393.422,350.458 392.962,348.808 392.042,347.587 C 391.121,346.367 389.888,345.757 388.343,345.757 C 386.519,345.757 385.122,346.398 384.152,347.68 L 384.152,340.875 L 382.685,340.875 Z M 390.901,348.487 C 391.596,349.477 391.943,350.914 391.943,352.796 C 391.943,354.497 391.594,355.841 390.895,356.827 C 390.197,357.813 389.223,358.306 387.973,358.306 C 387.07,358.306 386.293,358.088 385.644,357.653 C 384.994,357.217 384.497,356.584 384.152,355.754 L 384.152,349.356 C 384.506,348.592 385.011,348.008 385.668,347.606 C 386.326,347.203 387.102,347.002 387.998,347.002 C 389.239,347.002 390.207,347.497 390.901,348.487 Z" fill="#999999" marker-start="none" marker-end="none"/>
     <path d="M 397.46,346.885 C 396.494,347.637 396.012,348.588 396.012,349.738 L 397.491,349.738 C 397.548,348.876 397.912,348.204 398.582,347.723 C 399.251,347.242 400.137,347.002 401.238,347.002 C 402.265,347.002 403.096,347.228 403.729,347.68 C 404.361,348.132 404.678,348.703 404.678,349.393 C 404.678,350.125 404.384,350.712 403.796,351.156 C 403.209,351.6 402.323,351.947 401.14,352.198 C 399.956,352.449 399.038,352.736 398.384,353.061 C 397.731,353.385 397.246,353.782 396.93,354.25 C 396.614,354.719 396.455,355.286 396.455,355.951 C 396.455,357.003 396.895,357.873 397.774,358.559 C 398.654,359.245 399.78,359.588 401.152,359.588 C 402.639,359.588 403.833,359.22 404.733,358.485 C 405.633,357.749 406.083,356.79 406.083,355.606 L 404.604,355.606 C 404.604,356.387 404.277,357.036 403.624,357.554 C 402.97,358.072 402.146,358.331 401.152,358.331 C 400.182,358.331 399.404,358.115 398.816,357.684 C 398.228,357.252 397.934,356.691 397.934,356.001 C 397.934,355.335 398.179,354.819 398.668,354.454 C 399.157,354.088 400.049,353.753 401.343,353.449 C 402.637,353.145 403.607,352.82 404.252,352.475 C 404.898,352.13 405.376,351.715 405.688,351.23 C 406.001,350.745 406.157,350.158 406.157,349.467 C 406.157,348.341 405.703,347.442 404.795,346.768 C 403.887,346.094 402.701,345.757 401.238,345.757 C 399.685,345.757 398.426,346.133 397.46,346.885 Z" fill="#999999" marker-start="none" marker-end="none"/>
    </g>
   </g>
   <path d="M 293.328,353.728 L 306.973,367.39 L 294.026,363.465 L 291.712,356.108 L 293.328,353.728 Z" fill="#00bfbf" stroke="none" stroke-width="0.201" stroke-linejoin="miter" marker-start="none" marker-end="none"/>
   <path d="M 288.472,360.407 L 293.987,363.521 L 294.27,366.835 L 278.093,370.172 L 288.472,360.407 Z" stroke="#004040" fill="#004040" stroke-width="0.201" stroke-linejoin="miter" marker-start="none" marker-end="none"/>
   <path d="M 291.93,339.182 L 293.331,355.597 L 288.472,360.167 L 286.094,358.825 L 291.93,339.182 Z" stroke="#007f7f" fill="#007f7f" stroke-width="0.201" stroke-linejoin="miter" marker-start="none" marker-end="none"/>
  </g>
 </g>
</svg>
